<?xml version="1.0" standalone="no"?>
<!DOCTYPE svg PUBLIC "-//W3C//DTD SVG 20010904//EN"
 "http://www.w3.org/TR/2001/REC-SVG-20010904/DTD/svg10.dtd">
<svg version="1.0" xmlns="http://www.w3.org/2000/svg"
 width="700.000000pt" height="700.000000pt" viewBox="0 0 700.000000 700.000000"
 preserveAspectRatio="xMidYMid meet">
<metadata>
Created by potrace 1.14, written by Peter Selinger 2001-2017
</metadata>
<g transform="translate(0.000000,700.000000) scale(0.100000,-0.100000)"
fill="#000000" stroke="none">
<path d="M3278 6996 c-1 -2 -39 -6 -83 -10 -398 -31 -840 -152 -1210 -332
-180 -87 -448 -247 -555 -331 -8 -6 -51 -40 -95 -74 -351 -273 -674 -652 -897
-1054 -48 -86 -148 -289 -148 -301 0 -2 -11 -27 -24 -56 -60 -133 -155 -432
-181 -569 -3 -13 -11 -58 -20 -99 -22 -115 -30 -160 -41 -255 -26 -230 -26
-667 1 -826 2 -13 6 -46 9 -74 27 -233 116 -567 225 -840 64 -158 209 -436
300 -575 214 -324 467 -601 775 -848 89 -72 367 -262 382 -262 4 0 15 -6 23
-14 27 -23 259 -139 390 -195 269 -116 598 -208 880 -247 25 -3 57 -8 71 -10
163 -25 682 -25 842 1 13 2 46 7 73 10 72 10 86 12 120 19 17 3 44 8 60 11
343 65 740 212 1039 384 49 28 93 51 97 51 5 0 9 5 9 10 0 6 5 10 10 10 15 0
220 141 330 227 152 118 324 280 450 422 36 41 70 79 76 85 6 6 48 61 94 121
150 197 277 405 383 628 26 53 47 99 47 102 0 2 11 28 24 57 57 127 151 421
182 573 17 81 54 301 59 350 4 33 9 71 11 85 9 46 11 524 4 605 -15 153 -21
210 -25 225 -2 8 -7 35 -10 60 -40 301 -190 755 -352 1060 -232 436 -508 773
-907 1105 -218 182 -559 385 -851 507 -236 99 -574 195 -785 223 -19 3 -46 7
-60 10 -13 2 -52 7 -86 11 -33 3 -74 8 -90 10 -32 5 -540 14 -546 10z m-1963
-2220 c33 -3 67 -7 75 -9 8 -2 31 -7 50 -11 63 -14 156 -74 207 -132 26 -30
47 -59 46 -62 0 -4 -4 -79 -8 -167 -4 -88 -8 -185 -10 -215 -1 -30 -3 -81 -4
-112 -1 -51 -3 -58 -21 -58 -11 0 -20 7 -20 15 0 8 -1 18 -2 23 -1 4 -7 30
-14 57 -48 195 -101 352 -151 441 -38 68 -121 147 -170 162 -104 31 -194 3
-249 -79 -47 -71 -93 -227 -109 -374 -3 -27 -7 -66 -10 -85 -32 -280 -26
-1197 10 -1418 3 -21 8 -55 11 -77 7 -55 41 -182 61 -230 27 -65 71 -120 115
-145 34 -19 50 -22 102 -17 72 6 112 25 165 77 114 113 194 308 236 570 9 55
14 67 30 67 12 0 15 -14 16 -61 0 -34 2 -79 3 -101 2 -22 6 -116 11 -210 4
-93 9 -173 11 -177 11 -18 -128 -138 -198 -172 -92 -45 -124 -51 -273 -51
-115 1 -123 2 -187 33 -67 32 -160 113 -210 182 -104 144 -206 426 -233 650
-4 30 -9 58 -10 61 -7 11 -18 209 -18 339 -2 365 52 659 164 899 112 241 258
369 444 390 33 4 65 6 70 5 6 -2 37 -5 70 -8z m1942 -31 c78 -24 180 -79 218
-116 19 -19 20 -33 20 -315 1 -162 -2 -297 -5 -299 -16 -10 -29 18 -49 107
-92 400 -251 616 -439 595 -105 -12 -172 -151 -167 -345 6 -192 60 -310 262
-562 206 -258 227 -286 282 -379 159 -263 203 -550 130 -831 -51 -197 -155
-322 -303 -365 -168 -49 -433 19 -568 144 l-53 49 -1 347 c-1 308 1 346 15
343 8 -2 19 -19 23 -38 53 -254 51 -246 98 -390 64 -194 157 -330 262 -383
134 -68 227 -12 272 163 18 72 18 248 0 330 -8 36 -17 76 -20 90 -12 61 -97
210 -165 290 -196 232 -271 324 -288 350 -8 14 -18 27 -21 30 -3 3 -22 30 -41
60 -60 94 -130 266 -144 352 -34 223 -11 398 77 585 29 62 122 155 182 183
115 52 269 54 423 5z m1220 20 c241 -70 431 -393 499 -845 3 -25 8 -52 9 -60
19 -102 26 -487 12 -640 -46 -494 -216 -853 -456 -962 -208 -95 -439 -12 -584
211 -122 186 -204 469 -225 771 -12 188 -5 527 13 615 2 11 6 38 9 60 3 22 14
85 26 140 83 382 248 636 461 707 62 21 170 22 236 3z m-2047 -42 c-1 -23 -9
-32 -43 -48 -29 -14 -49 -33 -65 -62 -50 -91 -50 -102 -51 -1093 0 -992 1
-1001 51 -1112 23 -50 70 -98 97 -98 6 0 11 -13 11 -30 l0 -30 -296 0 -295 0
3 27 c2 19 12 32 30 41 59 28 105 121 123 247 8 59 8 1851 0 1910 -15 107 -68
197 -124 210 -23 5 -28 12 -29 35 l-1 30 295 0 294 0 0 -27z m3423 3 c216 -61
312 -185 356 -461 15 -93 7 -377 -14 -465 -19 -82 -72 -201 -107 -240 -38 -42
-95 -81 -153 -105 -54 -22 -55 -22 -26 -28 87 -18 167 -152 235 -394 25 -88
28 -102 41 -178 3 -22 10 -60 15 -85 5 -25 11 -63 14 -85 10 -74 16 -100 42
-173 32 -88 87 -161 140 -185 32 -15 39 -23 40 -47 l2 -30 -147 0 c-264 1
-291 17 -340 200 -11 41 -22 92 -25 113 -37 247 -87 525 -106 587 -24 82 -74
165 -123 204 -31 25 -49 31 -103 34 l-65 4 1 -415 c1 -444 7 -507 53 -596 14
-27 35 -51 54 -60 25 -12 33 -23 33 -43 l0 -28 -273 0 -273 0 2 27 c0 19 9 32
30 43 40 22 74 88 89 173 19 105 20 1955 1 2042 -21 97 -61 155 -107 155 -11
0 -15 8 -13 28 1 15 2 29 3 30 1 2 151 2 334 -1 270 -3 343 -7 390 -21z"/>
<path d="M4280 4705 c-82 -37 -132 -122 -174 -295 -15 -62 -19 -89 -32 -190
-3 -25 -7 -61 -9 -80 -26 -210 -27 -1142 -1 -1300 3 -14 7 -56 11 -95 4 -38 8
-72 10 -75 2 -3 6 -25 10 -49 20 -134 82 -262 147 -307 39 -26 51 -29 123 -29
69 0 85 3 115 25 86 61 125 150 159 365 24 151 30 205 38 385 12 269 5 950
-11 1036 -2 10 -7 55 -11 98 -4 43 -9 88 -11 100 -2 12 -7 37 -10 56 -26 161
-87 292 -156 337 -50 34 -144 42 -198 18z"/>
<path d="M5530 4070 l0 -621 77 2 c107 3 147 15 192 59 39 38 76 118 87 188 3
21 8 40 10 43 16 27 23 411 10 559 -6 76 -12 109 -32 200 -9 43 -57 122 -89
145 -44 33 -80 42 -172 44 l-83 2 0 -621z"/>
</g>
</svg>
