<?xml version="1.0" encoding="utf-8"?>
<!-- Generator: Adobe Illustrator 26.0.1, SVG Export Plug-In . SVG Version: 6.00 Build 0)  -->
<svg version="1.1" id="Layer_1" xmlns="http://www.w3.org/2000/svg" xmlns:xlink="http://www.w3.org/1999/xlink" x="0px" y="0px"
	 viewBox="0 0 198.33 74.86" style="enable-background:new 0 0 198.33 74.86;" xml:space="preserve">
<style type="text/css">
	.st0{fill:#13385E;}
</style>
<g>
	<path class="st0" d="M38.3,52.17l0.85,16.24c-4.85,5.1-9.38,6.45-16.39,6.45C8.92,74.86,0,59.25,0,37.28
		C0,15.21,8.92-0.3,22.76-0.3c6.75,0,12.26,1.04,16.39,6.35L38.3,22.29h-0.98C34.56,6.68,29.12,1.26,22.76,1.26
		c-7.08,0-12.66,6.04-12.66,36.02c0,30.29,5.77,36.02,12.66,36.02c6.56,0,13.31-7.5,14.56-21.13H38.3z"/>
	<path class="st0" d="M63.35,0.64V2.2c-2.82,0-5.11,2.29-5.11,8.74v51.11c0,7.08,2.36,10.31,5.11,10.31v1.56h-18.3v-1.56
		c2.82,0,5.12-3.23,5.12-10.31V10.94c0-6.45-2.23-8.74-5.12-8.74V0.64H63.35z"/>
	<path class="st0" d="M85.59,74.86c-11.67,0-16.79-6.14-16.79-6.14V48.73h0.98c1.05,9.47,4.39,24.57,15.8,24.57
		c8.46,0,10.23-16.34,2.36-25.3L77.52,37.39c-7.8-7.91-12.53-17.8-7.28-29.67c0,0,3.21-8.02,12.98-8.02c10.36,0,15.87,5,15.87,5
		v17.49h-0.98c-0.92-7.91-4.2-20.92-14.89-20.92c-7.08,0-11.08,14.16-1.9,23.63l10.49,10.93c8.72,9.16,11.28,20.51,7.08,30.5
		C98.9,66.33,95.95,74.86,85.59,74.86z"/>
	<path class="st0" d="M128.87,74.86c-14.43,0-21.97-16.34-21.97-37.06c0-20.61,7.54-38.1,21.97-38.1c14.43,0,21.97,17.49,21.97,38.1
		C150.84,58.52,143.3,74.86,128.87,74.86z M128.87,1.26c-7.8,0-12.59,8.02-12.59,36.54c0,28.63,4.79,35.5,12.59,35.5
		c7.74,0,12.46-6.87,12.46-35.5C141.33,9.28,136.61,1.26,128.87,1.26z"/>
	<path class="st0" d="M198.33,73.92h-5.51c-10.1-0.1-8.72-0.1-12.92-22.69c-1.97-10.83-8.33-10.83-9.18-10.83h-3.08v21.76
		c0,7.18,1.84,10.2,4.59,10.2v1.56h-16.92v-1.56c2.82,0,4.39-2.91,4.39-10.83v-50.7c0-6.45-1.51-8.64-4.39-8.64V0.64h14.36
		c13.05,0,21.31,2.5,21.31,19.88c0,13.43-5.12,17.9-12.53,18.95c4.33-0.21,9.18,2.39,12.46,23.21c1.31,7.91,5.71,9.47,7.41,9.68
		V73.92z M169.67,2.2h-2.03v36.64h2.03c6.95,0,12.33,0,12.33-18.32C182,1.99,176.36,2.2,169.67,2.2z"/>
</g>
</svg>
